<svg width="40" height="30" viewBox="0 0 40 30" fill="none" xmlns="http://www.w3.org/2000/svg">
<path d="M38 19C38 20 40 21 40 22.5C40 24 38 24 37 23C36 22 35.6356 21 35.6356 21C35.6356 21 31.0204 30 17.7205 30C8.02041 30 0.206248 27.4344 0.00383557 18.8018C-0.185294 10.7357 6.6471 4.67603 14.4812 3.55295C16.5772 0.885337 21.7595 -0.425751 23.8179 0.123162C26.676 0.885338 24.8502 2.53673 25.6521 6.22058C31.163 9.61152 35.6356 14.8004 35.6356 14.8004C35.6356 14.8004 35.2581 13.371 37 12.5C38 12 39 13 39 14C39 15 38 17 38 19Z" fill="white"/>
<mask id="path-2-inside-1_62_3435" fill="white">
<ellipse cx="16.9583" cy="11.5558" rx="1.7149" ry="1.52435"/>
</mask>
<ellipse cx="16.9583" cy="11.5558" rx="1.7149" ry="1.52435" fill="#FB2448"/>
<path d="M18.6732 11.5558H16.6732C16.6732 11.3426 16.7749 11.1987 16.8422 11.1389C16.9058 11.0823 16.9526 11.0802 16.9583 11.0802V13.0802V15.0802C18.782 15.0802 20.6732 13.7172 20.6732 11.5558H18.6732ZM16.9583 13.0802V11.0802C16.964 11.0802 17.0108 11.0823 17.0744 11.1389C17.1417 11.1987 17.2434 11.3426 17.2434 11.5558H15.2434H13.2434C13.2434 13.7172 15.1346 15.0802 16.9583 15.0802V13.0802ZM15.2434 11.5558H17.2434C17.2434 11.769 17.1417 11.9129 17.0744 11.9727C17.0108 12.0293 16.964 12.0314 16.9583 12.0314V10.0314V8.03145C15.1346 8.03145 13.2434 9.39441 13.2434 11.5558H15.2434ZM16.9583 10.0314V12.0314C16.9526 12.0314 16.9058 12.0293 16.8422 11.9727C16.7749 11.9129 16.6732 11.769 16.6732 11.5558H18.6732H20.6732C20.6732 9.39441 18.782 8.03145 16.9583 8.03145V10.0314Z" fill="#FB2448" mask="url(#path-2-inside-1_62_3435)"/>
<circle cx="5.71625" cy="11.5558" r="1" fill="#FB2448" stroke="#FB2448" stroke-width="1.0487"/>
<path d="M4 16.51L6 18.5L7.5 16.51L9.5 19.5L12 17L14 19.5L17.5 17" stroke="#FB2448"/>
</svg>
