<svg width="33" height="50" viewBox="0 0 33 50" fill="none" xmlns="http://www.w3.org/2000/svg">
<path d="M3.42358 9.47171C7.19002 3.25148 13.342 0.23554 19.5623 4.00198C20.5819 4.61942 21.4474 5.29175 22.1687 6.00784C24.8892 5.27302 27.1365 4.97366 27.1365 4.97366C27.1797 5.03208 31.7028 11.2058 25.3044 25.7823C21.5223 34.3985 15.4573 38.2759 12.2996 39.7891C12.6174 40.903 12.3543 42.6376 12.1374 44.3379C11.7926 47.0396 6.91717 49.5758 4.97534 49.3282C3.03356 49.0804 4.76062 46.1422 5.10522 43.4405C5.30598 41.8674 6.61467 40.4016 8.05639 39.5C6.30266 39.0244 4.42713 37.8279 3.81811 36.2002C2.86362 33.6493 0.510043 31.1851 2.3435 30.4991C4.17712 29.8132 9.50315 31.1651 10.4578 33.7158C10.6498 34.2292 10.844 34.7463 11.0222 35.2481C11.3815 31.4464 11.4468 26.3746 9.97241 22.5957C7.93373 21.9178 5.91323 20.9392 4.0896 19.835C-2.13042 16.0686 -0.342824 15.6919 3.42358 9.47171Z" fill="url(#paint0_linear_5_3066)"/>
<ellipse cx="6.73637" cy="10.5077" rx="2.61992" ry="2.61992" fill="#2F1AC4"/>
<ellipse cx="7.19872" cy="9.89123" rx="1.2329" ry="1.38702" fill="white"/>
<ellipse cx="16.6023" cy="11.4324" rx="2.61992" ry="2.61992" fill="#2F1AC4"/>
<ellipse cx="17.0647" cy="10.816" rx="1.2329" ry="1.38702" fill="white"/>
<path d="M16.1088 4.03331C15.9134 4.01514 15.759 3.9702 15.6507 3.89306C15.6507 3.89306 15.8174 3.94029 16.1088 4.03331C18.1143 4.21984 24.437 1.58783 29.4745 2.01919C35.0028 2.49259 28.3168 16.744 28.3168 16.744C28.3168 16.744 25.7542 9.21715 22.7004 7.12107C20.2704 5.45314 17.2438 4.39571 16.1088 4.03331Z" fill="#6C8CD9"/>
<defs>
<linearGradient id="paint0_linear_5_3066" x1="5.31398" y1="5.31935" x2="13.5852" y2="49.4908" gradientUnits="userSpaceOnUse">
<stop stop-color="#C9DAFF"/>
<stop offset="1" stop-color="#B7B3F8"/>
</linearGradient>
</defs>
</svg>
