<svg width="61" height="60" viewBox="0 0 61 60" fill="none" xmlns="http://www.w3.org/2000/svg">
<path d="M10.1826 16.0428L2.07764 7.93527L5.61264 4.40027L13.7201 12.5078H51.8226C52.2123 12.5077 52.5966 12.5988 52.9448 12.7737C53.293 12.9486 53.5955 13.2024 53.8282 13.515C54.0609 13.8276 54.2173 14.1902 54.2849 14.574C54.3525 14.9577 54.3295 15.352 54.2176 15.7253L48.2176 35.7253C48.0633 36.2405 47.7469 36.6922 47.3154 37.0133C46.884 37.3344 46.3605 37.5078 45.8226 37.5078H15.1826V42.5078H42.6826V47.5078H12.6826C12.0196 47.5078 11.3837 47.2444 10.9149 46.7755C10.446 46.3067 10.1826 45.6708 10.1826 45.0078V16.0428ZM15.1826 17.5078V32.5078H43.9626L48.4626 17.5078H15.1826ZM13.9326 57.5078C12.9381 57.5078 11.9842 57.1127 11.281 56.4094C10.5777 55.7062 10.1826 54.7523 10.1826 53.7578C10.1826 52.7632 10.5777 51.8094 11.281 51.1061C11.9842 50.4029 12.9381 50.0078 13.9326 50.0078C14.9272 50.0078 15.881 50.4029 16.5843 51.1061C17.2875 51.8094 17.6826 52.7632 17.6826 53.7578C17.6826 54.7523 17.2875 55.7062 16.5843 56.4094C15.881 57.1127 14.9272 57.5078 13.9326 57.5078ZM43.9326 57.5078C42.9381 57.5078 41.9842 57.1127 41.281 56.4094C40.5777 55.7062 40.1826 54.7523 40.1826 53.7578C40.1826 52.7632 40.5777 51.8094 41.281 51.1061C41.9842 50.4029 42.9381 50.0078 43.9326 50.0078C44.9272 50.0078 45.881 50.4029 46.5843 51.1061C47.2876 51.8094 47.6826 52.7632 47.6826 53.7578C47.6826 54.7523 47.2876 55.7062 46.5843 56.4094C45.881 57.1127 44.9272 57.5078 43.9326 57.5078Z" fill="white"/>
</svg>
