<svg width="61" height="60" viewBox="0 0 61 60" fill="none" xmlns="http://www.w3.org/2000/svg">
<path d="M50.1726 55.0003H45.1726V50.0003C45.1726 48.0112 44.3824 46.1035 42.9759 44.697C41.5694 43.2905 39.6617 42.5003 37.6726 42.5003H22.6726C20.6835 42.5003 18.7758 43.2905 17.3693 44.697C15.9628 46.1035 15.1726 48.0112 15.1726 50.0003V55.0003H10.1726V50.0003C10.1726 46.6851 11.4896 43.5056 13.8338 41.1614C16.178 38.8172 19.3574 37.5003 22.6726 37.5003H37.6726C40.9878 37.5003 44.1672 38.8172 46.5114 41.1614C48.8556 43.5056 50.1726 46.6851 50.1726 50.0003V55.0003ZM30.1726 32.5003C28.2028 32.5003 26.2522 32.1123 24.4324 31.3585C22.6125 30.6046 20.9589 29.4998 19.566 28.1069C18.1731 26.714 17.0682 25.0604 16.3144 23.2405C15.5606 21.4206 15.1726 19.4701 15.1726 17.5003C15.1726 15.5304 15.5606 13.5799 16.3144 11.76C17.0682 9.94014 18.1731 8.28655 19.566 6.89367C20.9589 5.50079 22.6125 4.3959 24.4324 3.64208C26.2522 2.88826 28.2028 2.50027 30.1726 2.50027C34.1509 2.50027 37.9662 4.08063 40.7792 6.89367C43.5923 9.70672 45.1726 13.522 45.1726 17.5003C45.1726 21.4785 43.5923 25.2938 40.7792 28.1069C37.9662 30.9199 34.1509 32.5003 30.1726 32.5003ZM30.1726 27.5003C32.8248 27.5003 35.3683 26.4467 37.2437 24.5713C39.119 22.696 40.1726 20.1524 40.1726 17.5003C40.1726 14.8481 39.119 12.3046 37.2437 10.4292C35.3683 8.55384 32.8248 7.50027 30.1726 7.50027C27.5204 7.50027 24.9769 8.55384 23.1015 10.4292C21.2262 12.3046 20.1726 14.8481 20.1726 17.5003C20.1726 20.1524 21.2262 22.696 23.1015 24.5713C24.9769 26.4467 27.5204 27.5003 30.1726 27.5003Z" fill="white"/>
</svg>
