<svg width="61" height="60" viewBox="0 0 61 60" fill="none" xmlns="http://www.w3.org/2000/svg">
<path d="M12.6726 55.0003C12.0096 55.0003 11.3737 54.7369 10.9048 54.268C10.436 53.7992 10.1726 53.1633 10.1726 52.5003V7.50027C10.1726 6.83723 10.436 6.20135 10.9048 5.73251C11.3737 5.26367 12.0096 5.00027 12.6726 5.00027H47.6726C48.3356 5.00027 48.9715 5.26367 49.4404 5.73251C49.9092 6.20135 50.1726 6.83723 50.1726 7.50027V15.0003H45.1726V10.0003H15.1726V50.0003H45.1726V45.0003H50.1726V52.5003C50.1726 53.1633 49.9092 53.7992 49.4404 54.268C48.9715 54.7369 48.3356 55.0003 47.6726 55.0003H12.6726ZM45.1726 40.0003V32.5003H27.6726V27.5003H45.1726V20.0003L57.6726 30.0003L45.1726 40.0003Z" fill="white"/>
</svg>
