<svg width="61" height="60" viewBox="0 0 61 60" fill="none" xmlns="http://www.w3.org/2000/svg">
<path d="M45.2501 41.5428L55.9576 52.2478L52.4201 55.7853L41.7151 45.0778C37.732 48.2708 32.7776 50.0075 27.6726 50.0003C15.2526 50.0003 5.17261 39.9203 5.17261 27.5003C5.17261 15.0803 15.2526 5.00027 27.6726 5.00027C40.0926 5.00027 50.1726 15.0803 50.1726 27.5003C50.1799 32.6053 48.4432 37.5596 45.2501 41.5428ZM40.2351 39.6878C43.4072 36.4245 45.179 32.0512 45.1726 27.5003C45.1726 17.8328 37.3401 10.0003 27.6726 10.0003C18.0051 10.0003 10.1726 17.8328 10.1726 27.5003C10.1726 37.1678 18.0051 45.0003 27.6726 45.0003C32.2235 45.0066 36.5969 43.2349 39.8601 40.0628L40.2351 39.6878Z" fill="white"/>
</svg>
