<svg width="61" height="60" viewBox="0 0 61 60" fill="none" xmlns="http://www.w3.org/2000/svg">
<path d="M35.1726 35.6303V40.8553C32.9099 40.0553 30.4883 39.8099 28.1111 40.1397C25.7339 40.4696 23.4706 41.365 21.5112 42.7508C19.5518 44.1366 17.9535 45.9723 16.8505 48.1038C15.7476 50.2353 15.1722 52.6003 15.1726 55.0003H10.1726C10.1715 51.9473 10.8693 48.9345 12.2125 46.1929C13.5558 43.4513 15.5089 41.0536 17.9222 39.1836C20.3354 37.3136 23.1447 36.0209 26.1349 35.4045C29.125 34.7882 32.2166 34.867 35.1726 35.6303ZM30.1726 32.5003C21.8851 32.5003 15.1726 25.7878 15.1726 17.5003C15.1726 9.21277 21.8851 2.50027 30.1726 2.50027C38.4601 2.50027 45.1726 9.21277 45.1726 17.5003C45.1726 25.7878 38.4601 32.5003 30.1726 32.5003ZM30.1726 27.5003C35.6976 27.5003 40.1726 23.0253 40.1726 17.5003C40.1726 11.9753 35.6976 7.50027 30.1726 7.50027C24.6476 7.50027 20.1726 11.9753 20.1726 17.5003C20.1726 23.0253 24.6476 27.5003 30.1726 27.5003ZM45.1726 42.5003V35.0003H50.1726V42.5003H57.6726V47.5003H50.1726V55.0003H45.1726V47.5003H37.6726V42.5003H45.1726Z" fill="white"/>
</svg>
